<svg width="28" height="24" viewBox="0 0 28 24" fill="none" xmlns="http://www.w3.org/2000/svg">
<path d="M22.5 8.75V1.25M18.75 5H26.25M18.75 22.5V21C18.75 18.8998 18.75 17.8497 18.3413 17.0475C17.9817 16.3419 17.4081 15.7683 16.7025 15.4087C15.9003 15 14.8502 15 12.75 15H7.25C5.1498 15 4.0997 15 3.29754 15.4087C2.59193 15.7683 2.01825 16.3419 1.65873 17.0475C1.25 17.8497 1.25 18.8998 1.25 21V22.5M14.375 5.625C14.375 8.04125 12.4162 10 10 10C7.58375 10 5.625 8.04125 5.625 5.625C5.625 3.20875 7.58375 1.25 10 1.25C12.4162 1.25 14.375 3.20875 14.375 5.625Z" stroke="#162D6E" stroke-width="2.5" stroke-linecap="round" stroke-linejoin="round"/>
</svg>
