<svg width="28" height="28" viewBox="0 0 28 28" fill="none" xmlns="http://www.w3.org/2000/svg">
<path d="M6.1001 23.6213H9.36296C9.78838 23.6213 10.2112 23.6719 10.6236 23.7731L14.0712 24.6109C14.8193 24.7932 15.5986 24.8109 16.3544 24.6641L20.1663 23.9225C21.1733 23.7263 22.0996 23.2441 22.8255 22.5379L25.5225 19.9145C26.2926 19.1665 26.2926 17.9529 25.5225 17.2037C24.829 16.5291 23.731 16.4532 22.9465 17.0252L19.8033 19.3184C19.3532 19.6474 18.8055 19.8246 18.2422 19.8246H15.207L17.1389 19.8245C18.2279 19.8245 19.1099 18.9665 19.1099 17.9072V17.5238C19.1099 16.6442 18.4946 15.8773 17.6177 15.6647L14.6358 14.9395C14.1506 14.8218 13.6536 14.7623 13.154 14.7623C11.948 14.7623 9.76496 15.7608 9.76496 15.7608L6.1001 17.2934M1.1001 16.7623L1.1001 24.0123C1.1001 24.7124 1.1001 25.0624 1.23634 25.3298C1.35618 25.565 1.54741 25.7562 1.78261 25.8761C2.05 26.0123 2.40003 26.0123 3.1001 26.0123H4.1001C4.80016 26.0123 5.1502 26.0123 5.41759 25.8761C5.65279 25.7562 5.84401 25.565 5.96386 25.3298C6.1001 25.0624 6.1001 24.7124 6.1001 24.0123V16.7623C6.1001 16.0623 6.1001 15.7122 5.96386 15.4448C5.84401 15.2096 5.65279 15.0184 5.41759 14.8986C5.1502 14.7623 4.80016 14.7623 4.1001 14.7623H3.1001C2.40003 14.7623 2.05 14.7623 1.78261 14.8986C1.54741 15.0184 1.35618 15.2096 1.23634 15.4448C1.1001 15.7122 1.1001 16.0623 1.1001 16.7623ZM20.0893 3.00264C19.3433 1.44157 17.6233 0.614551 15.9506 1.41279C14.278 2.21102 13.5653 4.10405 14.2657 5.76585C14.6985 6.79289 15.9385 8.78732 16.8227 10.1611C17.1494 10.6687 17.3127 10.9225 17.5513 11.071C17.756 11.1983 18.0122 11.267 18.2531 11.259C18.5339 11.2497 18.8023 11.1116 19.339 10.8354C20.7916 10.0877 22.8628 8.98051 23.7511 8.30747C25.1885 7.21847 25.5446 5.21679 24.4684 3.69512C23.3923 2.17345 21.5159 2.02372 20.0893 3.00264Z" stroke="#162D6E" stroke-width="2.2" stroke-linecap="round" stroke-linejoin="round"/>
</svg>
