<svg width="28" height="28" viewBox="0 0 28 28" fill="none" xmlns="http://www.w3.org/2000/svg">
<path d="M9.375 17.0833C9.375 18.6942 10.6808 20 12.2917 20H15C16.7259 20 18.125 18.6009 18.125 16.875C18.125 15.1491 16.7259 13.75 15 13.75H12.5C10.7741 13.75 9.375 12.3509 9.375 10.625C9.375 8.89911 10.7741 7.5 12.5 7.5H15.2083C16.8192 7.5 18.125 8.80584 18.125 10.4167M13.75 5.625V7.5M13.75 20V21.875M26.25 13.75C26.25 20.6536 20.6536 26.25 13.75 26.25C6.84644 26.25 1.25 20.6536 1.25 13.75C1.25 6.84644 6.84644 1.25 13.75 1.25C20.6536 1.25 26.25 6.84644 26.25 13.75Z" stroke="#162D6E" stroke-width="2.5" stroke-linecap="round" stroke-linejoin="round"/>
</svg>
