<svg preserveAspectRatio="none" width="100%" height="100%" overflow="visible" style="display: block;" viewBox="0 0 20 20" fill="none" xmlns="http://www.w3.org/2000/svg">
<g id="Icon">
<path id="Vector (Stroke)" d="M15.8337 9.25C16.2477 9.25018 16.5837 9.5859 16.5837 10C16.5837 10.4141 16.2477 10.7498 15.8337 10.75H4.16667C3.75245 10.75 3.41667 10.4142 3.41667 10C3.41667 9.58579 3.75245 9.25 4.16667 9.25H15.8337Z" fill="var(--fill-0, #162D6E)"/>
<path id="Vector (Stroke)_2" d="M9.46973 3.63639C9.76262 3.3435 10.2374 3.3435 10.5303 3.63639L16.3633 9.4694C16.6562 9.76229 16.6562 10.2371 16.3633 10.5299L10.5303 16.3639C10.2374 16.6566 9.76258 16.6566 9.46973 16.3639C9.17689 16.0711 9.177 15.5963 9.46973 15.3034L14.7725 9.99967L9.46973 4.69694C9.17683 4.40405 9.17683 3.92929 9.46973 3.63639Z" fill="var(--fill-0, #162D6E)"/>
</g>
</svg>
