<svg preserveAspectRatio="none" width="100%" height="100%" overflow="visible" style="display: block;" viewBox="0 0 27.2 27.1123" fill="none" xmlns="http://www.w3.org/2000/svg">
<path id="Icon" d="M6.1 23.6212H9.36287C9.78829 23.6212 10.2111 23.6719 10.6235 23.7731L14.0711 24.6109C14.8192 24.7931 15.5985 24.8109 16.3543 24.6641L20.1662 23.9225C21.1732 23.7263 22.0995 23.2441 22.8254 22.5379L25.5224 19.9144C26.2925 19.1665 26.2925 17.9528 25.5224 17.2036C24.8289 16.5291 23.7309 16.4532 22.9464 17.0252L19.8033 19.3184C19.3531 19.6474 18.8054 19.8246 18.2421 19.8246H15.2069L17.1388 19.8245C18.2278 19.8245 19.1098 18.9665 19.1098 17.9072V17.5237C19.1098 16.6442 18.4945 15.8773 17.6176 15.6646L14.6357 14.9395C14.1505 14.8218 13.6535 14.7623 13.1539 14.7623C11.9479 14.7623 9.76487 15.7608 9.76487 15.7608L6.1 17.2934M1.1 16.7623L1.1 24.0123C1.1 24.7124 1.1 25.0624 1.23625 25.3298C1.35609 25.565 1.54731 25.7562 1.78252 25.8761C2.04991 26.0123 2.39994 26.0123 3.1 26.0123H4.1C4.80007 26.0123 5.1501 26.0123 5.41749 25.8761C5.6527 25.7562 5.84392 25.565 5.96376 25.3298C6.1 25.0624 6.1 24.7124 6.1 24.0123V16.7623C6.1 16.0622 6.1 15.7122 5.96376 15.4448C5.84392 15.2096 5.6527 15.0184 5.41749 14.8986C5.1501 14.7623 4.80007 14.7623 4.10001 14.7623H3.10001C2.39994 14.7623 2.04991 14.7623 1.78252 14.8986C1.54731 15.0184 1.35609 15.2096 1.23625 15.4448C1.1 15.7122 1.1 16.0622 1.1 16.7623ZM20.0892 3.00263C19.3432 1.44156 17.6232 0.61454 15.9505 1.41277C14.2779 2.21101 13.5652 4.10403 14.2656 5.76584C14.6984 6.79288 15.9384 8.78731 16.8226 10.1611C17.1493 10.6687 17.3127 10.9225 17.5512 11.071C17.7559 11.1983 18.0121 11.267 18.253 11.259C18.5339 11.2497 18.8022 11.1116 19.3389 10.8353C20.7916 10.0877 22.8627 8.9805 23.751 8.30746C25.1884 7.21846 25.5445 5.21678 24.4683 3.69511C23.3922 2.17344 21.5158 2.02371 20.0892 3.00263Z" stroke="var(--stroke-0, #162D6E)" stroke-width="2.2" stroke-linecap="round" stroke-linejoin="round"/>
</svg>
