<svg width="21" height="21" viewBox="0 0 21 21" fill="none" xmlns="http://www.w3.org/2000/svg">
<path d="M1.44019 11.9574C1.54446 13.015 2.39729 13.775 3.45908 13.8331C4.82437 13.9081 7.02003 13.9878 10.1728 13.9878C13.3255 13.9878 15.5212 13.9081 16.8869 13.8331C17.9483 13.775 18.8011 13.015 18.9054 11.9574C18.9952 11.0465 19.0741 9.76052 19.0741 8.05359C19.0741 6.34665 18.9952 5.06063 18.9054 4.14973C18.8011 3.09175 17.9483 2.33217 16.8865 2.2741C15.5212 2.19907 13.3255 2.11938 10.1728 2.11938C7.02003 2.11938 4.82437 2.19907 3.45866 2.2741C2.39729 2.33217 1.54446 3.09217 1.44019 4.14973C1.35032 5.06105 1.27148 6.34665 1.27148 8.05359C1.27148 9.76052 1.35032 11.0465 1.44019 11.9574Z" fill="#8FBFFA"/>
<path d="M14.8354 17.9467C14.5821 18.0614 14.3094 18.1271 14.0317 18.1405C13.1238 18.1862 11.8522 18.2265 10.1728 18.2265C8.49341 18.2265 7.22179 18.1862 6.31386 18.1405C6.03615 18.1271 5.76347 18.0614 5.5102 17.9467M16.7428 15.6324C16.4185 15.8406 16.0452 15.9602 15.6602 15.9791C14.4785 16.0436 12.6783 16.1071 10.1728 16.1071C7.66728 16.1071 5.8671 16.0436 4.68535 15.9791C4.30038 15.9602 3.92711 15.8406 3.60278 15.6324M1.44019 11.9574C1.54446 13.015 2.39729 13.775 3.45909 13.8331C4.82438 13.9081 7.02003 13.9878 10.1728 13.9878C13.3255 13.9878 15.5212 13.9081 16.8869 13.8331C17.9483 13.775 18.8011 13.015 18.9054 11.9574C18.9952 11.0465 19.0741 9.76051 19.0741 8.05358C19.0741 6.34665 18.9952 5.06063 18.9054 4.14973C18.8011 3.09175 17.9483 2.33217 16.8865 2.2741C15.5212 2.19907 13.3255 2.11938 10.1728 2.11938C7.02003 2.11938 4.82437 2.19907 3.45866 2.2741C2.39729 2.33217 1.54446 3.09217 1.44019 4.14973C1.35032 5.06105 1.27148 6.34665 1.27148 8.05358C1.27148 9.76051 1.35032 11.0465 1.44019 11.9574Z" stroke="#2859C5" stroke-width="1.5" stroke-linecap="round" stroke-linejoin="round"/>
<path d="M11.8684 6.15039C11.8684 6.15039 11.1902 5.63157 10.1729 5.63157M10.1729 5.63157C9.32518 5.63157 8.47744 6.15081 8.47744 6.84257C8.47744 8.57281 11.8684 7.53475 11.8684 9.26499C11.8684 9.95675 11.0207 10.476 10.1729 10.476M10.1729 5.63157V4.6626M10.1729 10.476C9.15564 10.476 8.47744 9.95675 8.47744 9.95675M10.1729 10.476V11.4445M15.6833 8.05357H15.2594M5.08647 8.05357H4.6626" stroke="#2859C5" stroke-width="1.5" stroke-linecap="round" stroke-linejoin="round"/>
</svg>
