<svg width="25" height="25" viewBox="0 0 25 25" fill="none" xmlns="http://www.w3.org/2000/svg">
<g clip-path="url(#clip0_1678_385)">
<path d="M21.2448 12.605C21.3105 12.1391 21.3436 11.6641 21.3439 11.18C21.3439 5.56662 16.7936 1.01636 11.1803 1.01636C5.56687 1.01636 1.0166 5.56662 1.0166 11.18C1.0166 15.2485 3.40709 18.759 6.8607 20.3827V16.6023L6.85917 16.5164C6.85917 15.2846 7.5935 14.1991 8.71811 13.692C9.32742 13.4175 10.1207 13.0745 11.132 12.6634C12.7541 12.0048 13.9371 11.5764 14.6816 11.3218C15.7082 10.9711 16.816 10.9711 17.8425 11.3218C18.5636 11.5688 19.6979 11.9789 21.2448 12.6044" fill="#8FBFFA"/>
<path d="M1.74219 14.4832H6.98714M1.74219 7.79193H20.6171" stroke="#2859C5" stroke-width="1.5" stroke-linecap="round" stroke-linejoin="round"/>
<path d="M9.65873 17.2564C8.97574 16.9484 8.97574 16.085 9.65873 15.777C10.4306 15.431 11.209 15.0994 11.9933 14.7825C13.5763 14.1397 14.7187 13.7265 15.4215 13.4867C15.9665 13.2998 16.5581 13.2998 17.1031 13.4867C17.8054 13.7265 18.9478 14.1397 20.5308 14.7825C21.3152 15.0996 22.0937 15.4312 22.8659 15.777C23.5489 16.085 23.5489 16.9484 22.8659 17.2564C22.0938 17.6025 21.3153 17.934 20.5308 18.2509C18.9483 18.8937 17.8054 19.3069 17.1031 19.5467C16.558 19.7338 15.9661 19.7338 15.421 19.5467C14.7192 19.3069 13.5763 18.8937 11.9933 18.2509C11.2088 17.934 10.4303 17.6025 9.65822 17.2564" fill="white"/>
<path d="M11.9424 18.2305V19.7993C11.9424 20.6063 11.9754 21.1765 12.0151 21.5698C12.0669 22.0892 12.3606 22.5318 12.8368 22.7452C13.4812 23.0349 14.5961 23.3774 16.2619 23.3774C17.9278 23.3774 19.0427 23.0344 19.6871 22.7452C20.1627 22.5318 20.457 22.0892 20.5088 21.5698C20.5485 21.1765 20.5815 20.6063 20.5815 19.7993V18.2305L20.5307 18.2509C18.9482 18.8942 17.8053 19.3079 17.103 19.5472C16.5579 19.7342 15.966 19.7342 15.4209 19.5472C14.7186 19.3074 13.5762 18.8942 11.9932 18.2514L11.9424 18.2305Z" fill="white"/>
<path d="M9.14763 16.5169V22.6471M15.5355 11.18C15.5355 5.56662 13.5856 1.01636 11.1804 1.01636C8.77411 1.01636 6.82422 5.56662 6.82422 11.18C6.82422 12.3361 6.90705 13.4475 7.05951 14.4832" stroke="#2859C5" stroke-width="1.5" stroke-linecap="round" stroke-linejoin="round"/>
<path d="M21.2306 12.7046C21.3058 12.2065 21.3436 11.6984 21.3439 11.18C21.3439 5.56662 16.7936 1.01636 11.1802 1.01636C5.56687 1.01636 1.0166 5.56662 1.0166 11.18C1.0166 15.1484 3.29072 18.5852 6.60661 20.2587" stroke="#2859C5" stroke-width="1.5" stroke-linecap="round" stroke-linejoin="round"/>
<path d="M9.65873 17.2569C8.97574 16.9489 8.97574 16.0855 9.65873 15.7775C10.4306 15.4314 11.209 15.0999 11.9933 14.783C13.5763 14.1402 14.7187 13.727 15.4215 13.4872C15.9665 13.3003 16.5581 13.3003 17.1031 13.4872C17.8054 13.727 18.9478 14.1402 20.5308 14.783C21.3152 15.1001 22.0937 15.4317 22.8659 15.7775C23.5489 16.0855 23.5489 16.9489 22.8659 17.2569C22.0938 17.6029 21.3153 17.9345 20.5308 18.2514C18.9483 18.8942 17.8054 19.3074 17.1031 19.5472C16.558 19.7342 15.9661 19.7342 15.421 19.5472C14.7192 19.3074 13.5763 18.8942 11.9933 18.2514C11.2088 17.9345 10.4303 17.6029 9.65822 17.2569" stroke="#2859C5" stroke-width="1.5" stroke-linecap="round" stroke-linejoin="round"/>
<path d="M11.9424 18.2305V19.7993C11.9424 20.6063 11.9754 21.1765 12.0151 21.5698C12.0669 22.0892 12.3606 22.5318 12.8368 22.7452C13.4812 23.0349 14.5961 23.3774 16.2619 23.3774C17.9278 23.3774 19.0427 23.0344 19.6871 22.7452C20.1627 22.5318 20.457 22.0892 20.5088 21.5698C20.5485 21.1765 20.5815 20.6063 20.5815 19.7993V18.2305" stroke="#2859C5" stroke-width="1.5" stroke-linecap="round" stroke-linejoin="round"/>
</g>
<defs>
<clipPath id="clip0_1678_385">
<rect width="24.3928" height="24.3928" fill="white"/>
</clipPath>
</defs>
</svg>
