<svg width="26" height="26" viewBox="0 0 26 26" fill="none" xmlns="http://www.w3.org/2000/svg">
<path d="M21.4226 4.8202C21.4226 5.67246 21.084 6.48981 20.4814 7.09245C19.8787 7.69508 19.0614 8.03364 18.2091 8.03364C17.3569 8.03364 16.5395 7.69508 15.9369 7.09245C15.3342 6.48981 14.9957 5.67246 14.9957 4.8202C14.9957 3.96794 15.3342 3.15059 15.9369 2.54795C16.5395 1.94531 17.3569 1.60675 18.2091 1.60675C19.0614 1.60675 19.8787 1.94531 20.4814 2.54795C21.084 3.15059 21.4226 3.96794 21.4226 4.8202ZM4.28418 4.8202C4.28418 5.24219 4.3673 5.66006 4.52879 6.04993C4.69028 6.4398 4.92698 6.79405 5.22538 7.09245C5.52377 7.39084 5.87802 7.62754 6.26789 7.78903C6.65777 7.95052 7.07563 8.03364 7.49763 8.03364C7.91962 8.03364 8.33748 7.95052 8.72736 7.78903C9.11723 7.62754 9.47148 7.39084 9.76988 7.09245C10.0683 6.79405 10.305 6.4398 10.4665 6.04993C10.628 5.66006 10.7111 5.24219 10.7111 4.8202C10.7111 3.96794 10.3725 3.15059 9.76988 2.54795C9.16724 1.94531 8.34988 1.60675 7.49763 1.60675C6.64537 1.60675 5.82801 1.94531 5.22538 2.54795C4.62274 3.15059 4.28418 3.96794 4.28418 4.8202Z" fill="#8FBFFA"/>
<path d="M9.64014 9.1048C9.64014 9.95706 9.97869 10.7744 10.5813 11.3771C11.184 11.9797 12.0013 12.3182 12.8536 12.3182C13.7058 12.3182 14.5232 11.9797 15.1258 11.3771C15.7285 10.7744 16.067 9.95706 16.067 9.1048C16.067 8.25254 15.7285 7.43519 15.1258 6.83255C14.5232 6.22992 13.7058 5.89136 12.8536 5.89136C12.0013 5.89136 11.184 6.22992 10.5813 6.83255C9.97869 7.43519 9.64014 8.25254 9.64014 9.1048Z" fill="white"/>
<path d="M15.4545 12.3809C16.5256 12.4388 17.3756 13.2153 17.563 14.2715C17.736 15.2436 17.939 16.5659 18.0874 18.0848C18.1087 18.284 18.0893 18.4855 18.0303 18.677C17.9713 18.8685 17.8739 19.046 17.744 19.1986C17.6142 19.3513 17.4547 19.4759 17.2751 19.5648C17.0956 19.6538 16.8998 19.7053 16.6997 19.7161C16.4544 19.7304 16.1791 19.7442 15.8738 19.7574L15.6612 22.6356C15.6087 23.3457 15.0946 23.9365 14.3865 24.0141C13.9474 24.0623 13.4188 24.1009 12.8537 24.1009C12.2887 24.1009 11.7601 24.0623 11.3214 24.0141C10.6134 23.9365 10.0987 23.3457 10.0468 22.6356L9.83362 19.7574C9.5287 19.7445 9.25359 19.7308 9.0083 19.7161C8.80831 19.7052 8.61263 19.6537 8.43318 19.5647C8.25373 19.4758 8.09427 19.3512 7.9645 19.1986C7.83473 19.0461 7.73737 18.8687 7.67834 18.6773C7.61932 18.4859 7.59986 18.2845 7.62116 18.0853C7.76898 16.5659 7.97197 15.2436 8.14442 14.272C8.33241 13.2153 9.18183 12.4388 10.2535 12.3815C11.1195 12.3373 11.9866 12.3162 12.8537 12.3183C13.9324 12.3183 14.7925 12.3456 15.4545 12.3809Z" fill="white"/>
<path d="M9.6401 9.10477C9.6401 9.95703 9.97866 10.7744 10.5813 11.377C11.1839 11.9797 12.0013 12.3182 12.8535 12.3182C11.7749 12.3182 10.9148 12.3455 10.2533 12.3809C9.18219 12.4387 8.33223 13.2153 8.14424 14.2715C7.92005 15.5352 7.74532 16.8073 7.62045 18.0847C7.59907 18.2839 7.61847 18.4854 7.67746 18.6769C7.73645 18.8683 7.8338 19.0458 7.96357 19.1984C8.09335 19.351 8.25284 19.4756 8.43233 19.5646C8.61182 19.6536 8.80754 19.7052 9.00759 19.7161C9.25324 19.7304 9.52852 19.7441 9.83344 19.7573L10.0461 22.6355C10.0664 22.9124 10.1575 23.1711 10.3026 23.3885C10.075 23.5551 9.8463 23.7131 9.61065 23.8395C9.42212 23.9412 9.21271 24.0071 8.98724 24.0296C8.03238 24.1241 7.07059 24.1253 6.11549 24.0334C5.21786 23.9466 4.57464 23.1684 4.49645 22.2312L4.0637 17.0414C3.73636 17.0232 3.40967 16.9946 3.08414 16.9558C2.1683 16.8433 1.55614 16.0046 1.6097 15.0443C1.7045 13.3444 1.92837 11.7569 2.13831 10.5535C2.37397 9.20867 3.45208 8.23339 4.76048 8.1643C6.44379 8.07539 7.91716 8.04647 9.82166 8.0379C9.70126 8.3807 9.63987 8.74144 9.6401 9.10477ZM15.8854 8.0379C16.056 8.52253 16.1079 9.04098 16.0367 9.5498C15.9656 10.0586 15.7735 10.5429 15.4765 10.9622C15.1795 11.3814 14.7864 11.7234 14.33 11.9593C13.8736 12.1953 13.3673 12.3183 12.8535 12.3182C13.9322 12.3182 14.7923 12.3455 15.4538 12.3809C16.5254 12.4387 17.3749 13.2153 17.5629 14.2715C17.7358 15.2435 17.9388 16.5659 18.0866 18.0847C18.108 18.2839 18.0886 18.4854 18.0296 18.6769C17.9706 18.8683 17.8733 19.0458 17.7435 19.1984C17.6137 19.351 17.4543 19.4756 17.2748 19.5646C17.0953 19.6536 16.8996 19.7052 16.6995 19.7161C16.4542 19.7304 16.1789 19.7441 15.8737 19.7573L15.661 22.6355C15.6407 22.9124 15.5496 23.1711 15.4045 23.3885C15.6321 23.5551 15.8608 23.7131 16.0965 23.8395C16.285 23.9412 16.4944 24.0071 16.7199 24.0296C17.6747 24.1241 18.6365 24.1253 19.5916 24.0334C20.4892 23.9466 21.1325 23.1684 21.2107 22.2312L21.6434 17.0414C21.9707 17.0232 22.2974 16.9946 22.623 16.9558C23.5388 16.8433 24.151 16.0046 24.0974 15.0443C24.0026 13.3444 23.7787 11.7569 23.5688 10.5535C23.3331 9.20867 22.255 8.23339 20.9466 8.1643C19.2633 8.07539 17.7899 8.04647 15.8854 8.0379Z" fill="#8FBFFA"/>
<path d="M14.9957 4.8202C14.9957 5.67246 15.3342 6.48981 15.9369 7.09245C16.5395 7.69508 17.3569 8.03364 18.2091 8.03364C19.0614 8.03364 19.8787 7.69508 20.4814 7.09245C21.084 6.48981 21.4226 5.67246 21.4226 4.8202C21.4226 3.96794 21.084 3.15059 20.4814 2.54795C19.8787 1.94531 19.0614 1.60675 18.2091 1.60675C17.3569 1.60675 16.5395 1.94531 15.9369 2.54795C15.3342 3.15059 14.9957 3.96794 14.9957 4.8202ZM10.7111 4.8202C10.7111 5.24219 10.628 5.66006 10.4665 6.04993C10.305 6.4398 10.0683 6.79405 9.76988 7.09245C9.47148 7.39084 9.11723 7.62754 8.72736 7.78903C8.33748 7.95052 7.91962 8.03364 7.49763 8.03364C7.07563 8.03364 6.65777 7.95052 6.26789 7.78903C5.87802 7.62754 5.52377 7.39084 5.22538 7.09245C4.92698 6.79405 4.69028 6.4398 4.52879 6.04993C4.3673 5.66006 4.28418 5.24219 4.28418 4.8202C4.28418 4.3982 4.3673 3.98034 4.52879 3.59046C4.69028 3.20059 4.92698 2.84634 5.22538 2.54795C5.52377 2.24955 5.87802 2.01285 6.26789 1.85136C6.65777 1.68987 7.07563 1.60675 7.49763 1.60675C7.91962 1.60675 8.33748 1.68987 8.72736 1.85136C9.11723 2.01285 9.47148 2.24955 9.76988 2.54795C10.0683 2.84634 10.305 3.20059 10.4665 3.59046C10.628 3.98034 10.7111 4.3982 10.7111 4.8202ZM16.0668 9.10479C16.0668 9.95705 15.7283 10.7744 15.1256 11.377C14.523 11.9797 13.7056 12.3182 12.8534 12.3182C12.0011 12.3182 11.1838 11.9797 10.5811 11.377C9.97848 10.7744 9.63992 9.95705 9.63992 9.10479C9.63992 8.25253 9.97848 7.43518 10.5811 6.83254C11.1838 6.2299 12.0011 5.89135 12.8534 5.89135C13.7056 5.89135 14.523 6.2299 15.1256 6.83254C15.7283 7.43518 16.0668 8.25253 16.0668 9.10479Z" stroke="#2859C5" stroke-width="1.60672" stroke-linejoin="round"/>
<path d="M9.82166 8.0379C7.91716 8.04701 6.44379 8.07539 4.76048 8.1643C3.45208 8.23339 2.37343 9.20867 2.13831 10.553C1.92837 11.7569 1.7045 13.3444 1.6097 15.0443C1.55614 16.0046 2.1683 16.8438 3.08414 16.9552C3.40959 16.9949 3.7363 17.0235 4.0637 17.0409L4.49645 22.2312C4.57464 23.1684 5.21786 23.9466 6.11549 24.0334C7.07061 24.125 8.03236 24.1237 8.98724 24.0296C9.50889 23.9782 9.94538 23.6922 10.2346 23.2761M15.4725 23.2761C15.7617 23.6917 16.1982 23.9777 16.7204 24.0296C17.6749 24.124 18.6363 24.1253 19.5911 24.0334C20.4892 23.9466 21.1325 23.1684 21.2107 22.2312L21.6439 17.0414C21.9711 17.0232 22.2976 16.9946 22.623 16.9558C23.5388 16.8433 24.151 16.0046 24.0974 15.0443C24.0026 13.3444 23.7787 11.7569 23.5688 10.5535C23.3331 9.20867 22.255 8.23339 20.9466 8.1643C19.2633 8.07539 17.7899 8.04647 15.8854 8.0379" stroke="#2859C5" stroke-width="1.60672" stroke-linecap="round" stroke-linejoin="round"/>
<path d="M15.4545 12.3809C16.5256 12.4388 17.3756 13.2153 17.563 14.2715C17.736 15.2436 17.939 16.5659 18.0874 18.0848C18.1087 18.284 18.0893 18.4855 18.0303 18.677C17.9713 18.8685 17.8739 19.046 17.744 19.1986C17.6142 19.3513 17.4547 19.4759 17.2751 19.5648C17.0956 19.6538 16.8998 19.7053 16.6997 19.7161C16.4544 19.7304 16.1791 19.7442 15.8738 19.7574L15.6612 22.6356C15.6087 23.3457 15.0946 23.9365 14.3865 24.0141C13.9474 24.0623 13.4188 24.1009 12.8537 24.1009C12.2887 24.1009 11.7601 24.0623 11.3214 24.0141C10.6134 23.9365 10.0987 23.3457 10.0468 22.6356L9.83362 19.7574C9.5287 19.7445 9.25359 19.7308 9.0083 19.7161C8.80831 19.7052 8.61263 19.6537 8.43318 19.5647C8.25373 19.4758 8.09427 19.3512 7.9645 19.1986C7.83473 19.0461 7.73737 18.8687 7.67834 18.6773C7.61932 18.4859 7.59986 18.2845 7.62116 18.0853C7.76898 16.5659 7.97197 15.2436 8.14442 14.272C8.33241 13.2153 9.18183 12.4388 10.2535 12.3815C11.1195 12.3373 11.9866 12.3162 12.8537 12.3183C13.9324 12.3183 14.7925 12.3456 15.4545 12.3809Z" stroke="#2859C5" stroke-width="1.60672" stroke-linejoin="round"/>
</svg>
