<svg width="23" height="23" viewBox="0 0 23 23" fill="none" xmlns="http://www.w3.org/2000/svg">
<path d="M21.69 9.20248C21.635 10.011 21.013 10.6095 20.2045 10.6635C19.5145 10.7095 18.5405 10.75 17.25 10.75C16.2645 10.7539 15.2791 10.725 14.2955 10.6635C13.487 10.6095 12.8655 10.011 12.81 9.20248C12.776 8.70748 12.75 8.06248 12.75 7.24998C12.75 6.43748 12.776 5.79248 12.81 5.29748C12.865 4.48898 13.487 3.89048 14.2955 3.83648C15.2791 3.77494 16.2645 3.74609 17.25 3.74998C18.5405 3.74998 19.514 3.79048 20.2045 3.83648C21.013 3.89048 21.6345 4.48898 21.69 5.29748C21.724 5.79248 21.75 6.43748 21.75 7.24998C21.75 8.06248 21.724 8.70748 21.69 9.20248Z" fill="#8FBFFA"/>
<path d="M0.75 13.25C0.75 13.25 3.75 12 6.25 12C8.0265 12 9.978 12.701 11.2745 13.273C12.2495 13.703 12.8145 13.975 13.0425 15.016C13.2005 15.738 12.682 16.942 11.9455 16.9995L11.3795 17.0445C13.078 17.0445 17.558 16.2555 19.125 15.9695C19.493 15.9025 19.8725 15.8535 20.224 15.9805C20.67 16.141 21.272 16.531 21.569 17.4775C21.813 18.255 21.258 19.0075 20.496 19.2955C18.28 20.13 13.688 21.75 11.3795 21.75C5.25 21.75 0.75 20.25 0.75 20.25V13.25Z" fill="white"/>
<path d="M0.75 13.032C0.75 13.032 3.75 11.75 6.25 11.75C8.0135 11.75 9.95 12.459 11.247 13.0435C12.242 13.4915 12.8145 13.7745 13.042 14.842C13.2005 15.5835 12.668 16.8195 11.912 16.8805L11.3795 16.9235M11.3795 16.9235C10.1585 16.9235 8.2685 16.5615 8.2685 16.5615M11.3795 16.9235C13.073 16.9235 17.531 16.119 19.111 15.8235C19.488 15.7535 19.8785 15.702 20.237 15.837C20.688 16.0075 21.293 16.419 21.582 17.412C21.808 18.188 21.2655 18.9345 20.512 19.226C18.302 20.081 13.6935 21.75 11.3795 21.75C5.25 21.75 0.75 20.2115 0.75 20.2115M14.052 3.75C12.8235 3.25 12.9175 0.75 14.956 0.75C16.74 0.75 17.25 2.75 17.25 3.75C17.25 2.75 17.76 0.75 19.544 0.75C21.5825 0.75 21.6765 3.25 20.4475 3.75" stroke="#2859C5" stroke-width="1.5" stroke-linecap="round" stroke-linejoin="round"/>
<path d="M17.25 3.77248V10.7725M21.69 9.20248C21.635 10.011 21.013 10.6095 20.2045 10.6635C19.2209 10.725 18.2355 10.7539 17.25 10.75C16.2645 10.7539 15.2791 10.725 14.2955 10.6635C13.487 10.6095 12.8655 10.011 12.81 9.20248C12.776 8.70748 12.75 8.06248 12.75 7.24998C12.75 6.43748 12.776 5.79248 12.81 5.29748C12.865 4.48898 13.487 3.89048 14.2955 3.83648C15.2791 3.77494 16.2645 3.74609 17.25 3.74998C18.5405 3.74998 19.514 3.79048 20.2045 3.83648C21.013 3.89048 21.6345 4.48898 21.69 5.29748C21.724 5.79248 21.75 6.43748 21.75 7.24998C21.75 8.06248 21.724 8.70748 21.69 9.20248Z" stroke="#2859C5" stroke-width="1.5" stroke-linecap="round" stroke-linejoin="round"/>
</svg>
