<svg width="26" height="26" viewBox="0 0 26 26" fill="none" xmlns="http://www.w3.org/2000/svg">
<path d="M2.91495 21.4005C3.03224 22.764 4.09642 23.7822 5.4616 23.8743C7.11385 23.9857 9.70978 24.1008 13.3897 24.1008C17.0691 24.1008 19.6656 23.9857 21.3178 23.8743C22.6835 23.7822 23.7472 22.764 23.8645 21.4005C23.9855 19.9898 24.1012 17.886 24.1012 14.9961C24.1012 12.1061 23.9855 10.0029 23.8645 8.59166C23.7472 7.22809 22.683 6.20996 21.3178 6.11784C19.6656 6.00645 17.0696 5.8913 13.3897 5.8913C9.71031 5.8913 7.11385 6.00645 5.4616 6.11784C4.09589 6.20996 3.03224 7.22809 2.91495 8.59166C2.79391 10.0024 2.67822 12.1061 2.67822 14.9961C2.67822 17.886 2.79391 19.9898 2.91495 21.4005Z" fill="#8FBFFA"/>
<path d="M2.68663 16.3345C2.68128 15.9088 2.67842 15.4627 2.67806 14.9961C2.67806 12.1061 2.79375 10.0029 2.91479 8.59165C3.03208 7.22808 4.09627 6.20996 5.46144 6.11784C7.11369 6.00644 9.70962 5.89129 13.3896 5.89129C17.0689 5.89129 19.6654 6.00644 21.3177 6.11784C21.7124 6.14381 22.0973 6.25199 22.4477 6.43543C22.2983 5.52173 22.129 4.6114 21.94 3.70508C21.6658 2.40631 20.5148 1.54296 19.1743 1.61044C17.5552 1.69185 15.0198 1.88091 11.4486 2.31472C7.87742 2.74854 5.37093 3.17164 3.77974 3.4796C2.46276 3.73507 1.55711 4.84799 1.60906 6.17354C1.66583 7.62334 1.81793 9.81544 2.19283 12.8393C2.35779 14.167 2.52489 15.3286 2.68663 16.3345Z" fill="white"/>
<path d="M13.4363 15.4368C13.4824 16.3511 14.177 17.0457 15.0913 17.0918C15.622 17.1185 16.3001 17.1384 17.1388 17.1384C17.8215 17.14 18.5043 17.1245 19.1863 17.0918C20.1 17.0457 20.7951 16.3511 20.8412 15.4368C20.868 14.9061 20.8878 14.228 20.8878 13.3893C20.8894 12.7067 20.8739 12.0242 20.8412 11.3424C20.7951 10.4281 20.1005 9.73297 19.1863 9.68744C18.5043 9.65456 17.8215 9.63885 17.1388 9.64031C16.4562 9.63868 15.7736 9.65422 15.0918 9.68691C14.1776 9.73297 13.4824 10.4276 13.4369 11.3418C13.404 12.0238 13.3883 12.7065 13.3897 13.3893C13.3897 14.228 13.4101 14.9061 13.4363 15.4368Z" fill="white"/>
<path d="M21.9175 3.69278C21.6438 2.40151 20.4934 1.54352 19.155 1.61047C17.5376 1.69134 15.0048 1.87933 11.4374 2.31047C7.87046 2.7416 5.36665 3.16203 3.77707 3.46838C2.4617 3.7217 1.55711 4.8282 1.60906 6.14625C1.66583 7.58694 1.8174 9.76512 2.1923 12.7708C2.36208 14.1301 2.53453 15.3147 2.70003 16.335" stroke="#2859C5" stroke-width="1.60672" stroke-linecap="round" stroke-linejoin="round"/>
<path d="M2.91495 21.4005C3.03224 22.764 4.09642 23.7822 5.4616 23.8743C7.11385 23.9857 9.70978 24.1008 13.3897 24.1008C17.0691 24.1008 19.6656 23.9857 21.3178 23.8743C22.6835 23.7822 23.7472 22.764 23.8645 21.4005C23.9855 19.9898 24.1012 17.886 24.1012 14.9961C24.1012 12.1061 23.9855 10.0029 23.8645 8.59166C23.7472 7.22809 22.683 6.20996 21.3178 6.11784C19.6656 6.00645 17.0696 5.8913 13.3897 5.8913C9.71031 5.8913 7.11385 6.00645 5.4616 6.11784C4.09589 6.20996 3.03224 7.22809 2.91495 8.59166C2.79391 10.0024 2.67822 12.1061 2.67822 14.9961C2.67822 17.886 2.79391 19.9898 2.91495 21.4005Z" stroke="#2859C5" stroke-width="1.60672" stroke-linejoin="round"/>
<path d="M10.1762 10.1759H5.8916M10.1762 16.6028H5.8916M20.8877 19.8162H5.8916M10.1762 13.3893H5.8916" stroke="#2859C5" stroke-width="1.60672" stroke-linecap="round" stroke-linejoin="round"/>
<path d="M13.4363 15.4368C13.4824 16.3511 14.177 17.0457 15.0913 17.0918C15.622 17.1185 16.3001 17.1384 17.1388 17.1384C17.8215 17.14 18.5043 17.1245 19.1863 17.0918C20.1 17.0457 20.7951 16.3511 20.8412 15.4368C20.868 14.9061 20.8878 14.228 20.8878 13.3893C20.8894 12.7067 20.8739 12.0242 20.8412 11.3424C20.7951 10.4281 20.1005 9.73297 19.1863 9.68744C18.5043 9.65456 17.8215 9.63885 17.1388 9.64031C16.4562 9.63868 15.7736 9.65422 15.0918 9.68691C14.1776 9.73297 13.4824 10.4276 13.4369 11.3418C13.404 12.0238 13.3883 12.7065 13.3897 13.3893C13.3897 14.228 13.4101 14.9061 13.4363 15.4368Z" stroke="#2859C5" stroke-width="1.60672" stroke-linejoin="round"/>
</svg>
